# Blender v3.1.2 OBJ File: ''
# www.blender.org
mtllib untitled.mtl
o Circle
v 0.000000 0.466333 -0.079464
v -0.118653 0.169115 -0.079464
v -0.437990 0.148115 -0.079464
v -0.191984 -0.056576 -0.079464
v -0.270693 -0.366773 -0.079464
v 0.000000 -0.196061 -0.079464
v 0.270693 -0.366773 -0.079464
v 0.191984 -0.056576 -0.079464
v 0.437990 0.148115 -0.079464
v 0.118653 0.169115 -0.079464
v 0.000000 0.005803 -0.079464
v 0.000000 0.005803 -0.079464
v 0.000000 0.005803 -0.079464
v 0.000000 0.005803 -0.079464
v 0.000000 0.005803 -0.079464
v 0.000000 0.005803 -0.079464
v 0.000000 0.005803 -0.079464
v 0.000000 0.005803 -0.079464
v 0.000000 0.005803 -0.079464
v 0.000000 0.005803 -0.079464
v -0.118653 0.169115 0.079464
v 0.000000 0.466333 0.079464
v -0.437990 0.148115 0.079464
v -0.191984 -0.056576 0.079464
v -0.270693 -0.366773 0.079464
v 0.000000 -0.196061 0.079464
v 0.270693 -0.366773 0.079464
v 0.191984 -0.056576 0.079464
v 0.437990 0.148115 0.079464
v 0.118653 0.169115 0.079464
v 0.000000 0.005803 0.079464
v 0.000000 0.005803 0.079464
v 0.000000 0.005803 0.079464
v 0.000000 0.005803 0.079464
v 0.000000 0.005803 0.079464
v 0.000000 0.005803 0.079464
v 0.000000 0.005803 0.079464
v 0.000000 0.005803 0.079464
v 0.000000 0.005803 0.079464
v 0.000000 0.005803 0.079464
vt 0.000000 0.000000
vt 0.000000 0.000000
vt 0.000000 0.000000
vt 0.000000 0.000000
vt 0.000000 0.000000
vt 0.000000 0.000000
vt 0.000000 0.000000
vt 0.000000 0.000000
vt 0.000000 0.000000
vt 0.000000 0.000000
vt 0.000000 0.000000
vt 0.000000 0.000000
vt 0.000000 0.000000
vt 0.000000 0.000000
vt 0.000000 0.000000
vt 0.000000 0.000000
vt 0.000000 0.000000
vt 0.000000 0.000000
vt 0.000000 0.000000
vt 0.000000 0.000000
vt 0.000000 0.000000
vt 0.000000 0.000000
vt 0.000000 0.000000
vt 0.000000 0.000000
vt 0.000000 0.000000
vt 0.000000 0.000000
vt 0.000000 0.000000
vt 0.000000 0.000000
vt 0.000000 0.000000
vt 0.000000 0.000000
vt 0.000000 0.000000
vt 0.000000 0.000000
vt 0.000000 0.000000
vt 0.000000 0.000000
vt 0.000000 0.000000
vt 0.000000 0.000000
vt 0.000000 0.000000
vt 0.000000 0.000000
vt 0.000000 0.000000
vt 0.000000 0.000000
vn -0.0000 0.0000 1.0000
vn -0.0000 0.0000 -1.0000
vn -0.9287 -0.3708 0.0000
vn 0.6396 0.7687 0.0000
vn 1.0000 0.0000 0.0000
vn 0.0000 1.0000 0.0000
vn 0.9693 -0.2459 -0.0000
vn 0.0000 -1.0000 -0.0000
vn -0.5334 0.8458 0.0000
vn -1.0000 0.0000 0.0000
vn 0.5334 0.8458 0.0000
vn -0.9693 -0.2459 0.0000
vn -0.6396 0.7687 0.0000
vn 0.9287 -0.3708 0.0000
vn -0.0656 -0.9978 0.0000
vn 0.0656 -0.9978 0.0000
usemtl None
s off
f 8/1/1 18/2/1 17/3/1 7/4/1
f 5/5/1 15/6/1 14/7/1 4/8/1
f 2/9/1 12/10/1 11/11/1 1/12/1
f 9/13/1 19/14/1 18/2/1 8/1/1
f 6/15/1 16/16/1 15/6/1 5/5/1
f 3/17/1 13/18/1 12/10/1 2/9/1
f 10/19/1 20/20/1 19/14/1 9/13/1
f 7/4/1 17/3/1 16/16/1 6/15/1
f 4/8/1 14/7/1 13/18/1 3/17/1
f 1/12/1 11/11/1 20/20/1 10/19/1
f 28/21/2 27/22/2 37/23/2 38/24/2
f 25/25/2 24/26/2 34/27/2 35/28/2
f 21/29/2 22/30/2 32/31/2 31/32/2
f 29/33/2 28/21/2 38/24/2 39/34/2
f 26/35/2 25/25/2 35/28/2 36/36/2
f 23/37/2 21/29/2 31/32/2 33/38/2
f 30/39/2 29/33/2 39/34/2 40/40/2
f 27/22/2 26/35/2 36/36/2 37/23/2
f 24/26/2 23/37/2 33/38/2 34/27/2
f 22/30/2 30/39/2 40/40/2 32/31/2
f 1/12/3 10/19/3 30/39/3 22/30/3
f 4/8/4 3/17/4 23/37/4 24/26/4
f 18/2/5 19/14/5 39/34/5 38/24/5
f 11/11/6 12/10/6 31/32/6 32/31/6
f 5/5/7 4/8/7 24/26/7 25/25/7
f 19/14/8 20/20/8 40/40/8 39/34/8
f 12/10/1 13/18/1 33/38/1 31/32/1
f 6/15/9 5/5/9 25/25/9 26/35/9
f 20/20/6 11/11/6 32/31/6 40/40/6
f 13/18/10 14/7/10 34/27/10 33/38/10
f 7/4/11 6/15/11 26/35/11 27/22/11
f 14/7/5 15/6/5 35/28/5 34/27/5
f 8/1/12 7/4/12 27/22/12 28/21/12
f 15/6/8 16/16/8 36/36/8 35/28/8
f 9/13/13 8/1/13 28/21/13 29/33/13
f 2/9/14 1/12/14 22/30/14 21/29/14
f 16/16/6 17/3/6 37/23/6 36/36/6
f 10/19/15 9/13/15 29/33/15 30/39/15
f 3/17/16 2/9/16 21/29/16 23/37/16
f 17/3/10 18/2/10 38/24/10 37/23/10
